{"title":"Jeff.Dunham.Controlled.Chaos.Uncensored.2011.DVDRiP.AC3-5.1.XviD","uid":7114397,"size":1467990246,"categoryP":"video","categoryS":"movies","magnet":"?xt=urn:btih:e9b2af36f89bf72b8789a99d605676b440d3423c&amp;dn=Jeff.Dunham.Controlled.Chaos.Uncensored.2011.DVDRiP.AC3-5.1.XviD&amp;tr=udp%3A%2F%2Ftracker.openbittorrent.com%3A80&amp;tr=udp%3A%2F%2Fopen.demonii.com%3A1337&amp;tr=udp%3A%2F%2Ftracker.coppersurfer.tk%3A6969&amp;tr=udp%3A%2F%2Fexodus.desync.com%3A6969","seeders":1,"leechers":0,"uploader":"crazy-torrent","files":2,"time":1332177399,"description":" &lt;a href=&quot;http://www.scenespeeds.com/&quot; rel=&quot;nofollow&quot; target=&quot;_NEW&quot;&gt;http://www.scenespeeds.com/&lt;/a&gt;\n\nDescription\n\nPlot:\nVentriloquist and comic Jeff Dunham takes to the stage to provide fresh comedic material with his classic puppets Walter, Peanut, Jose Jalape o and Achmed, as well as with two never-before-seen characters with their own unique quirks\n\nGeneral\nComplete name: Jeff.Dunham.Controlled.Chaos.Uncensored.2011.DVDRiP.AC3-5.1.XviD-SiC.avi\nFormat: AVI\nFormat/Info: Audio Video Interleave\nFile size: 1.37 GiB\nDuration: 1h 37mn\nOverall bit rate: 2 017 Kbps\n\nVideo\nID: 0\nFormat: MPEG-4 Visual\nFormat profile: Advanced Simple@L5\nFormat settings, BVOP: 2\nFormat settings, QPel: No\nFormat settings, GMC: No warppoints\nFormat settings, Matrix: Default (H.263)\nMuxing mode: Packed bitstream\nCodec ID: XVID\nCodec ID/Hint: XviD\nDuration: 1h 37mn\nBit rate: 1 624 Kbps\nWidth: 720 pixels\nHeight: 400 pixels\nDisplay aspect ratio: 16:9\nFrame rate: 29.970 fps\nColor space: YUV\nChroma subsampling: 4:2:0\nBit depth: 8 bits\nScan type: Progressive\nCompression mode: Lossy\nBits/(Pixel*Frame): 0.188\nStream size: 1.10 GiB (81%)\nWriting library: XviD 64\n\nAudio\nID: 1\nFormat: AC-3\nFormat/Info: Audio Coding 3\nMode extension: CM (complete main)\nCodec ID: 2000\nDuration: 1h 37mn\nBit rate mode: Constant\nBit rate: 384 Kbps\nChannel(s): 6 channels\nChannel positions: Front: L C R, Side: L R, LFE\nSampling rate: 48.0 KHz\nBit depth: 16 bits\nCompression mode: Lossy\nStream size: 266 MiB (19%)\nAlignment: Aligned on interleaves\nInterleave, duration: 64 ms (1.92 video frames)\nInterleave, preload duration: 192 ms\nTitle: Jeff.Dunham T82 3_2ch 448Kbps DELAY 0ms_new\n\n &lt;a href=&quot;\nhttp://www.scenespeeds.com/&quot; rel=&quot;nofollow&quot; target=&quot;_NEW&quot;&gt;\nhttp://www.scenespeeds.com/&lt;/a&gt;\t","torrent":{"xt":"urn:btih:e9b2af36f89bf72b8789a99d605676b440d3423c","amp;dn":"Jeff.Dunham.Controlled.Chaos.Uncensored.2011.DVDRiP.AC3-5.1.XviD","amp;tr":["udp%3A%2F%2Ftracker.openbittorrent.com%3A80","udp%3A%2F%2Fopen.demonii.com%3A1337","udp%3A%2F%2Ftracker.coppersurfer.tk%3A6969","udp%3A%2F%2Fexodus.desync.com%3A6969"],"infoHash":"e9b2af36f89bf72b8789a99d605676b440d3423c","infoHashBuffer":{"type":"Buffer","data":[233,178,175,54,248,155,247,43,135,137,169,157,96,86,118,180,64,211,66,60]},"announce":[],"urlList":[]}}